
<svg width="72px" height="72px" viewBox="-1 -1 72 72" version="1.1" xmlns="http://www.w3.org/2000/svg" xmlns:xlink="http://www.w3.org/1999/xlink">
    <!-- Generator: Sketch 3.7.2 (28276) - http://www.bohemiancoding.com/sketch -->
    <desc>Created with Sketch.</desc>
    <defs></defs>
    <g id="Capa_1" stroke="none" stroke-width="1" fill="none" fill-rule="evenodd">
        <circle id="Oval-1" stroke="#979797" fill="#4990E2" cx="35" cy="35" r="35"></circle>
        <g id="reverse" transform="translate(6.588235, 6.588235)">
            <ellipse id="Oval-1" stroke="#979797" fill="#FFFFFF" cx="28.8235294" cy="28.8235294" rx="28.8235294" ry="28.8235294"></ellipse>
            <g id="Group" transform="translate(9.882353, 5.764706)" fill="#4990E2">
                <path d="M33.7225032,41.1693934 C33.3891149,41.1693934 33.0681693,41.0391728 32.8284222,40.8054963 L32.5058091,40.491011 L29.5911307,40.5755515 C28.4906542,40.6009007 27.5908008,39.7412132 27.5602712,38.6313787 L27.5166575,37.0640993 L26.0345611,37.1070772 C26.0159612,37.1075919 25.9967198,37.1078493 25.9773502,37.1078493 C24.9004765,37.1078493 24.0335899,36.2533088 24.0038299,35.1623897 L23.9606011,33.5958824 L22.4783764,33.6388603 C22.458622,33.639375 22.4405351,33.6396324 22.42232,33.6396324 C21.3448048,33.6396324 20.4774052,32.7849632 20.447517,31.6939154 L20.3606744,28.5645037 C20.0921935,28.2908088 19.6215503,27.8440441 19.1156313,27.3768199 C18.615613,27.6651838 18.0450431,27.8221691 17.461389,27.8221691 C16.5927066,27.8221691 15.7686641,27.4850368 15.1413964,26.8729228 C15.1157412,26.8479596 15.0911123,26.8218382 15.0676379,26.7948162 C15.0056808,26.7231434 14.9384644,26.6436213 14.87035,26.5595956 C14.3653289,26.6181434 13.8565879,26.647739 13.3491296,26.647739 C9.8147517,26.647739 6.49241341,25.26125 3.9938611,22.7433088 C-1.16050944,17.5496691 -1.16050944,9.09897059 3.9938611,3.90520221 C6.49266997,1.38713235 9.8152648,0.000514705882 13.3497709,0.000514705882 C16.8842771,0.000514705882 20.2067436,1.38713235 22.7054242,3.90507353 C25.7483782,6.97117647 27.1032252,11.278364 26.3924501,15.5331801 C26.728917,16.0581801 26.9181235,16.6693934 26.935569,17.3099449 C26.9505772,17.8592647 26.8397471,18.3923713 26.6160345,18.8743934 L40.6968481,33.0852941 C40.9269745,33.3176838 41.0601246,33.6292096 41.0692322,33.9565625 L41.1685175,37.5257904 C41.219956,39.4150184 39.7576141,40.9952941 37.9083929,41.0493382 L33.75919,41.1690074 C33.7470038,41.1692647 33.7346894,41.1693934 33.7225032,41.1693934 L33.7225032,41.1693934 Z M33.0109584,37.9021691 C33.3443467,37.9021691 33.6652923,38.0325184 33.9050394,38.2661949 L34.2276526,38.5806801 L37.8343779,38.4765809 C38.2714129,38.4638419 38.6171156,38.0690625 38.6041598,37.5966912 L38.5189848,34.5377941 L24.228184,20.1150919 C24.0352575,19.9202757 23.9095474,19.6687132 23.8691406,19.3972059 L23.820011,19.0659926 C23.7631849,18.681636 23.8822247,18.2920037 24.14442,18.0059559 C24.2969397,17.8394485 24.3774968,17.6172243 24.371083,17.3805882 C24.3647975,17.1505147 24.2746198,16.9371691 24.1173539,16.7797978 C23.8085945,16.4712316 23.6772402,16.0263971 23.7685725,15.5988051 C24.5365585,12.0052574 23.4594283,8.31262868 20.8871175,5.72056985 C18.8735752,3.69147059 16.1967198,2.57404412 13.3496427,2.57404412 C10.5025655,2.57404412 7.82596665,3.69147059 5.81216786,5.72056985 C1.65129192,9.91310662 1.65129192,16.7350184 5.81216786,20.9274265 C7.8257101,22.9566544 10.502309,24.0739522 13.3492578,24.0739522 C14.0305296,24.0739522 14.7143669,24.0079412 15.3821697,23.8781066 C15.9372183,23.7695037 16.4971413,24.0390809 16.7610042,24.5405331 C16.834891,24.6810478 16.8083379,25.0672059 17.4282939,25.1743934 C17.6357156,25.2102941 17.8689207,25.1613971 18.0172073,25.003125 L18.1833242,24.8140993 C18.4096023,24.5567463 18.7286238,24.4006618 19.0699652,24.3805882 C19.4132307,24.3607721 19.746619,24.477739 20.0013744,24.7065257 C20.0270295,24.7296875 20.6386476,25.2792647 21.2619388,25.8633272 C22.6275609,27.1430147 22.8966832,27.4468199 22.913359,28.0544301 L22.9963533,31.048989 L25.1702401,30.9859375 C25.5135056,30.9751287 25.8409932,31.1025184 26.0883086,31.3369669 C26.3358805,31.5715441 26.4801906,31.8952941 26.4895547,32.2366728 L26.552538,34.5173346 L28.7259117,34.4542831 C29.0693055,34.4432169 29.3966648,34.5707353 29.6438519,34.8053125 C29.8914239,35.039761 30.0357339,35.3633824 30.0452263,35.7046324 L30.1087227,37.9859375 L32.9736302,37.9028125 C32.9862012,37.9022978 32.9986439,37.9021691 33.0109584,37.9021691 L33.0109584,37.9021691 Z" id="Shape"></path>
                <path d="M11.0182335,15.49625 C9.81718893,15.49625 8.68836357,15.0254228 7.83969214,14.170239 C6.09116731,12.4080147 6.09129558,9.54123162 7.83969214,7.77965074 C8.68836357,6.92446691 9.81744548,6.45325368 11.0186183,6.45325368 C12.2197911,6.45325368 13.348873,6.92433824 14.1975444,7.77977941 C15.9458127,9.54136029 15.9455562,12.4080147 14.1971596,14.1697243 C13.3486165,15.0250368 12.2196628,15.49625 11.0182335,15.49625 L11.0182335,15.49625 Z M11.0186183,9.02691176 C10.5048745,9.02691176 10.0216603,9.22880515 9.65787062,9.59540441 C8.90296866,10.356011 8.90296866,11.59375 9.6579989,12.354614 C10.021532,12.7209559 10.5047462,12.9227206 11.0182335,12.9227206 C11.5319773,12.9227206 12.0150632,12.7208272 12.3788528,12.3542279 C13.1338831,11.593364 13.1340114,10.3558824 12.379366,9.59540441 C12.0157046,9.22880515 11.5323621,9.02691176 11.0186183,9.02691176 L11.0186183,9.02691176 Z" id="Shape"></path>
                <path d="M34.9767821,36.4036029 C34.6476269,36.4036029 34.3183434,36.2773713 34.0676929,36.0246507 L22.6899029,24.5595772 C22.1901411,24.0559375 22.191937,23.2412868 22.6940077,22.7398346 C23.1958219,22.2386397 24.0081913,22.2400551 24.5080814,22.7439522 L35.8858714,34.2090257 C36.3856331,34.7126654 36.3838373,35.5273162 35.8817665,36.0287684 C35.6315008,36.2786581 35.3041415,36.4036029 34.9767821,36.4036029 L34.9767821,36.4036029 Z" id="Shape"></path>
            </g>
        </g>
    </g>
</svg>