
<svg width="72px" height="72px" viewBox="-1 -1 72 72" version="1.1" xmlns="http://www.w3.org/2000/svg" xmlns:xlink="http://www.w3.org/1999/xlink">
    <!-- Generator: Sketch 3.7.2 (28276) - http://www.bohemiancoding.com/sketch -->
    <desc>Created with Sketch.</desc>
    <defs></defs>
    <g id="AE" stroke="none" stroke-width="1" fill="none" fill-rule="evenodd">
        <g id="Capa_1">
            <circle id="Oval-1" stroke="#979797" fill="#4990E2" cx="35" cy="35" r="35"></circle>
            <g id="reverse" transform="translate(6.588235, 5.764706)">
                <ellipse id="Oval-1" stroke="#979797" fill="#FFFFFF" cx="28.8235294" cy="28.8235294" rx="28.8235294" ry="28.8235294"></ellipse>
                <g id="Group" transform="translate(15.647059, 8.235294)" fill="#4990E2">
                    <path d="M23.6182422,0 L3.48265744,0 C1.55559862,0 -3.55271368e-15,1.31764706 -3.55271368e-15,2.93970588 L-3.55271368e-15,37.4191176 C-3.55271368e-15,39.0397059 1.55559862,40.3558824 3.48265744,40.3558824 L23.6182422,40.3558824 C25.5418131,40.3558824 27.1008997,39.0397059 27.1008997,37.4191176 L27.1008997,2.93970588 C27.1008997,1.31764706 25.5418131,0 23.6182422,0 L23.6182422,0 Z M8.58195156,1.78529412 L18.522436,1.78529412 C18.773564,1.78529412 18.9776055,2.10147059 18.9776055,2.49264706 C18.9776055,2.88382353 18.773564,3.20147059 18.522436,3.20147059 L8.58195156,3.20147059 C8.32907958,3.20147059 8.12852595,2.88382353 8.12852595,2.49264706 C8.12852595,2.10147059 8.32907958,1.78529412 8.58195156,1.78529412 L8.58195156,1.78529412 Z M13.5521938,37.4544118 C12.3262007,37.4544118 11.3286644,36.6132353 11.3286644,35.5779412 C11.3286644,34.5426471 12.3262007,33.7044118 13.5521938,33.7044118 C14.774699,33.7044118 15.7722353,34.5426471 15.7722353,35.5779412 C15.7722353,36.6132353 14.774699,37.4544118 13.5521938,37.4544118 L13.5521938,37.4544118 Z M24.4919585,31.0294118 L2.61068512,31.0294118 L2.61068512,4.96029412 L24.4919585,4.96029412 L24.4919585,31.0294118 L24.4919585,31.0294118 Z" id="Shape"></path>
                </g>
            </g>
        </g>
    </g>
</svg>