
<svg width="72px" height="72px" viewBox="-1 -1 72 72" version="1.1" xmlns="http://www.w3.org/2000/svg" xmlns:xlink="http://www.w3.org/1999/xlink">
    <!-- Generator: Sketch 3.7.2 (28276) - http://www.bohemiancoding.com/sketch -->
    <desc>Created with Sketch.</desc>
    <defs></defs>
    <g id="Container" stroke="none" stroke-width="1" fill="none" fill-rule="evenodd">
        <circle id="Oval-1" stroke="#979797" fill="#4990E2" cx="35" cy="35" r="35"></circle>
        <g id="reverse" transform="translate(6.588235, 6.588235)">
            <ellipse id="Oval-1" stroke="#979797" fill="#FFFFFF" cx="28.8235294" cy="28.8235294" rx="28.8235294" ry="28.8235294"></ellipse>
            <g id="Capa_1" transform="translate(8.235294, 8.235294)" fill="#4990E2">
                <path d="M34.5045155,6.35052572 L24.7656822,6.35052572 C22.3993166,6.35052572 20.4686356,4.11267406 20.4686356,1.347684 C20.4686356,0.601733447 19.9560654,0.00497300369 19.3153527,0.00497300369 L6.6036124,0.00497300369 C2.96436417,0.00497300369 0,3.45623757 0,7.69323671 L0,33.4036658 C0,37.640665 2.96436417,41.0919295 6.6036124,41.0919295 L34.5045155,41.0919295 C38.1437637,41.0919295 41.1081279,37.640665 41.1081279,33.4036658 L41.1081279,14.0288434 C41.1081279,9.79184427 38.1437637,6.35052572 34.5045155,6.35052572 L34.5045155,6.35052572 Z M38.8015621,33.3937198 C38.8015621,36.1487639 36.879424,38.3965615 34.5045155,38.3965615 L6.6036124,38.3965615 C4.23724677,38.3965615 2.30656578,36.1587099 2.30656578,33.3937198 L2.30656578,7.69323671 C2.30656578,4.93819267 4.22870393,2.690395 6.6036124,2.690395 L18.2645838,2.690395 C18.8113254,6.29084967 21.5194044,9.03594771 24.7656822,9.03594771 L34.5045155,9.03594771 C36.8708811,9.03594771 38.8015621,11.2737994 38.8015621,14.0387894 L38.8015621,33.3937198 L38.8015621,33.3937198 L38.8015621,33.3937198 Z" id="Shape"></path>
            </g>
        </g>
    </g>
</svg>