
<svg width="72px" height="72px" viewBox="-1 -1 72 72" version="1.1" xmlns="http://www.w3.org/2000/svg" xmlns:xlink="http://www.w3.org/1999/xlink">
    <!-- Generator: Sketch 3.7.2 (28276) - http://www.bohemiancoding.com/sketch -->
    <desc>Created with Sketch.</desc>
    <defs></defs>
    <g id="CSEBase" stroke="none" stroke-width="1" fill="none" fill-rule="evenodd">
        <g id="Capa_1">
            <circle id="Oval-1" stroke="#979797" fill="#4990E2" cx="35" cy="35" r="35"></circle>
            <g id="reverse" transform="translate(6.588235, 5.764706)">
                <ellipse id="Oval-1" stroke="#979797" fill="#FFFFFF" cx="28.8235294" cy="28.8235294" rx="28.8235294" ry="28.8235294"></ellipse>
                <g id="Group" transform="translate(7.411765, 8.235294)" fill="#4990E2">
                    <path d="M29.8569654,28.8082147 C30.5937583,28.829742 31.1159737,29.4044788 31.6026897,29.8960681 C32.0700031,30.367936 32.5555692,30.8132921 33.1607125,31.0974819 C34.0106868,31.4964603 34.7548096,30.2280083 33.8998768,29.8262126 C32.9033056,29.3581734 32.2685556,28.4497626 31.4200185,27.8685243 C31.5724361,27.6982559 31.7134996,27.5039319 31.8380351,27.275872 C32.2924854,26.4432405 31.0280156,25.7004747 30.5734935,26.5328173 C30.3383636,26.9637255 29.9800636,27.2271827 29.5543579,27.3881321 C29.5507648,27.3896491 29.5469562,27.390805 29.5432194,27.392322 C28.3897752,27.8214241 26.7425726,27.4975026 25.665445,27.6520227 C25.6601273,27.6528896 25.655097,27.6540454 25.6498511,27.6546233 C26.4174725,27.1801548 27.2639257,26.8002477 27.9930295,26.4550877 C29.8985012,25.5532508 31.7652397,24.313839 32.3716046,22.1687616 C32.630233,21.2535604 31.2173699,20.8657069 30.9596037,21.7772962 C30.6743148,22.786192 30.0228929,23.5136429 29.2181193,24.0936533 C29.2406118,23.2486687 29.17529,22.4004334 29.8103275,21.7242002 C30.4580125,21.0345304 29.4242172,19.9917544 28.7747357,20.6832301 C28.2593471,21.232033 27.9254081,21.8527141 27.8089929,22.6021981 C27.6946617,23.3370175 27.9975567,24.2144376 27.6184889,24.88258 C27.5847141,24.9418163 27.562509,25.0004747 27.5457653,25.0582663 C26.8842829,25.3803818 26.2131711,25.6701342 25.6124115,25.9770072 C25.1116826,26.2325181 24.6182117,26.5413416 24.1614619,26.8963261 C24.9175855,24.5690609 25.6028539,22.0755728 27.6363823,20.6360578 C29.7391849,19.1476367 32.5056976,19.1396904 34.3883174,17.2363261 C35.0544708,16.562549 34.0191664,15.5215789 33.3527256,16.195356 C32.6834103,16.8720949 31.8703727,17.315356 31.0060261,17.6790815 C31.3294734,17.0742931 31.4871368,16.388741 31.6070732,15.6819505 C31.7645211,14.7538184 30.3533826,14.3562126 30.1950724,15.2905573 C30.0297197,16.2652838 29.8658762,17.1621362 28.9877323,17.7357172 C27.175752,18.9200103 25.5139616,20.1457688 24.4438045,22.0901651 C24.0620778,22.7837358 23.764788,23.5205779 23.497105,24.2647884 C23.3027205,24.8047781 22.7274715,25.8522497 22.7828765,26.4181734 C22.7392567,25.9713003 22.6770249,25.5342518 22.6372138,25.1036326 C22.6366389,25.084128 22.634555,25.0647678 22.6322554,25.0447575 C22.5575198,24.1929102 22.5809465,23.3633127 23.0345344,22.5238906 C24.2348322,20.3027451 26.6932758,19.068968 26.7458064,16.2672343 C26.7636998,15.3172859 25.2991685,15.3190918 25.2816343,16.2672343 C25.2513808,17.8776677 24.0939123,19.0203509 23.0184375,20.204066 C22.9803511,20.0455005 22.9287547,19.8883798 22.8575403,19.7345098 C22.6167334,19.2137358 22.2582178,18.7784211 22.0875475,18.2242724 C21.9045889,17.630031 21.9926188,16.9368215 22.0315676,16.3279154 C22.0922903,15.379773 20.6278308,15.3856966 20.5673955,16.3279154 C20.4990555,17.3930857 20.5307463,18.356904 20.9529309,19.3469453 C21.1399856,19.7857998 21.4627862,20.1188958 21.6064367,20.5842621 C21.7425418,21.0252116 21.5982445,21.5613003 21.4364131,22.0388029 C20.9831126,21.6989886 20.428416,21.45258 19.8458372,21.3016718 C17.7565445,20.7602374 15.5681552,20.5527657 14.5510317,18.3310423 C14.1566574,17.469515 12.8947747,18.2178431 13.2864901,19.074097 C13.4504055,19.4321878 13.654132,19.7628999 13.888687,20.0670279 C13.7746433,20.0605986 13.6605995,20.054097 13.5465558,20.0475955 C12.7129658,19.9998452 12.2072067,19.8026316 11.9301817,18.9620537 C11.546371,17.7975542 11.6220409,16.6536429 10.7081819,15.7179257 C10.0458372,15.039742 9.01089211,16.081001 9.67259008,16.758968 C10.2082435,17.3077709 10.260774,18.1109288 10.3929268,18.8327451 C10.5286726,19.5737049 10.8174828,20.2422085 11.3305718,20.793612 C11.7516066,21.2457585 12.4365158,21.4231785 13.0249872,21.4785862 C13.9464634,21.5654902 14.8747665,21.5991538 15.7991171,21.6495046 C16.0090237,21.7603199 16.2251822,21.8614551 16.4465147,21.9498039 C17.2328919,22.2634675 18.0344318,22.4497007 18.8650755,22.6008978 C19.5505595,22.725872 20.8461452,22.9793602 21.0628067,23.7833849 C20.2052151,23.7147575 19.2186326,24.1058617 18.444903,24.4143963 C17.8429935,24.6545924 17.2137768,24.7892466 16.5801766,24.8312178 C16.5113335,24.7816615 16.4315676,24.7397626 16.3336208,24.7139009 C15.7968176,24.5709391 15.472508,24.140031 15.117801,23.7391744 C14.6905862,23.2566873 14.204517,22.8561197 13.6746843,22.4936945 C13.1480854,22.1335088 12.536834,21.8924458 11.9339904,21.696388 C11.3414229,21.5036533 10.5829278,21.3955108 10.1827328,20.8613725 C9.62214352,20.1133333 8.34969716,20.8454799 8.9184786,21.6044272 C9.81271943,22.7978225 11.170465,22.8561197 12.4262396,23.4683488 C12.8619341,23.680805 13.227492,23.9908566 13.572354,24.3269143 C13.3160969,24.2213725 13.0650857,24.1026832 12.822626,23.9670898 C11.9963659,23.5057688 11.2581357,24.7773271 12.0834617,25.2379979 C13.4084386,25.9778019 14.8479622,26.3344479 16.3629401,26.3126316 C17.1055538,26.3020124 17.8526229,26.1492982 18.5598091,25.9312797 C19.1186018,25.7591331 20.6362386,24.8068731 21.1868391,25.3803818 C21.2082538,25.5805573 21.2329022,25.7815273 21.2601376,25.9848813 C21.4243404,27.2084004 21.4143517,28.4140764 21.2185299,29.6165738 C20.3726517,28.7007946 19.0409917,28.2690918 17.8239503,27.9555005 C15.8806796,27.4549536 13.7127708,27.2814345 12.0800123,25.9939835 C11.3461657,25.415129 10.3020942,26.4493808 11.0444205,27.0350258 C11.6536598,27.515418 12.3036444,27.8776987 12.9850323,28.1647781 C12.3256339,28.4745408 11.726024,28.6734881 10.9006981,28.5119608 C9.97835951,28.33129 9.585135,29.7499278 10.5113541,29.9313932 C11.3138281,30.0885139 12.0699518,30.0731992 12.8615748,29.8618266 C13.2776512,29.7507224 13.6731034,29.5334985 14.0367211,29.3092673 C14.5254491,29.0080289 14.9725696,29.0024665 15.5290627,29.0307843 C15.6222667,29.0354076 15.7038292,29.0218989 15.7785648,28.9997936 C17.2521507,29.323354 20.044246,29.567451 20.5338364,31.300547 C20.5672518,31.4184417 20.6203573,31.5139422 20.6863258,31.5899381 L20.3201211,41.1657069 L23.797916,41.1657069 L23.4317113,31.1066563 C23.4317113,31.0482147 23.4267529,30.9934572 23.4205728,30.9392776 C23.4710194,30.8867595 23.5181604,30.8260784 23.5563905,30.7476987 C23.8768196,30.0898865 24.3245149,29.6852012 24.8499641,29.432291 C25.8151319,29.6984933 26.3232625,30.3421465 27.0272149,31.1016718 C27.6305615,31.7527657 28.4485576,32.1921981 29.3014783,32.3975748 C30.2194333,32.6186275 30.6087773,31.199195 29.6908223,30.9781424 C28.5828662,30.7114345 27.9991377,29.9657069 27.2749204,29.152291 C27.2288574,29.1007121 27.177836,29.0539009 27.128611,29.0052116 C28.020193,28.9716202 28.9426034,28.9896078 29.7659173,28.7968008 C29.7966739,28.8008462 29.825059,28.8072755 29.8569654,28.8082147 L29.8569654,28.8082147 Z" id="Shape"></path>
                    <path d="M8.33367211,23.5324252 C6.36783698,23.5324252 6.36783698,26.5971104 8.33367211,26.5971104 C10.2995072,26.5968215 10.2995072,23.5324252 8.33367211,23.5324252 L8.33367211,23.5324252 Z" id="Shape"></path>
                    <path d="M7.11425932,20.1612281 C9.08009445,20.1612281 9.08009445,17.0965428 7.11425932,17.0965428 C5.14813674,17.0968318 5.14813674,20.1612281 7.11425932,20.1612281 L7.11425932,20.1612281 Z" id="Shape"></path>
                    <path d="M5.28503234,20.7742518 C3.31919721,20.7742518 3.31919721,23.838937 5.28503234,23.838937 C7.25086747,23.838937 7.25086747,20.7742518 5.28503234,20.7742518 L5.28503234,20.7742518 Z" id="Shape"></path>
                    <path d="M14.1256852,13.8789267 C12.1598501,13.8789267 12.1598501,16.943612 14.1256852,16.943612 C16.0915204,16.943612 16.0915922,13.8789267 14.1256852,13.8789267 L14.1256852,13.8789267 Z" id="Shape"></path>
                    <path d="M7.87627554,15.7177812 C9.84211067,15.7177812 9.84211067,12.653096 7.87627554,12.653096 C5.91044041,12.653096 5.91044041,15.7177812 7.87627554,15.7177812 L7.87627554,15.7177812 Z" id="Shape"></path>
                    <path d="M11.3820244,13.2661197 C13.3478596,13.2661197 13.3478596,10.2014345 11.3820244,10.2014345 C9.4161893,10.2014345 9.41611744,13.2661197 11.3820244,13.2661197 L11.3820244,13.2661197 Z" id="Shape"></path>
                    <path d="M16.4120214,10.3547265 C14.4461862,10.3547265 14.4461862,13.4194118 16.4120214,13.4194118 C18.3782158,13.4194118 18.3782158,10.3547265 16.4120214,10.3547265 L16.4120214,10.3547265 Z" id="Shape"></path>
                    <path d="M17.9363412,19.0886894 C19.9021764,19.0886894 19.9021764,16.0240041 17.9363412,16.0240041 C15.9705061,16.0242931 15.9705061,19.0886894 17.9363412,19.0886894 L17.9363412,19.0886894 Z" id="Shape"></path>
                    <path d="M20.6800739,14.6451703 C22.6458372,14.6451703 22.6458372,11.580485 20.6800739,11.580485 C18.7141669,11.5805573 18.7141669,14.6451703 20.6800739,14.6451703 L20.6800739,14.6451703 Z" id="Shape"></path>
                    <path d="M14.1256852,6.83059856 C12.1598501,6.83059856 12.1598501,9.8952838 14.1256852,9.8952838 C16.0915204,9.8952838 16.0915922,6.83059856 14.1256852,6.83059856 L14.1256852,6.83059856 Z" id="Shape"></path>
                    <path d="M19.4606611,7.13674923 C17.494826,7.13674923 17.494826,10.2014345 19.4606611,10.2014345 C21.4264963,10.2014345 21.4264963,7.13674923 19.4606611,7.13674923 L19.4606611,7.13674923 Z" id="Shape"></path>
                    <path d="M8.48580228,10.0482147 C10.4516374,10.0482147 10.4516374,6.98352941 8.48580228,6.98352941 C6.51996715,6.98352941 6.51996715,10.0482147 8.48580228,10.0482147 L8.48580228,10.0482147 Z" id="Shape"></path>
                    <path d="M3.30331588,17.4033437 C5.26915101,17.4033437 5.26915101,14.3386584 3.30331588,14.3386584 C1.33748075,14.3386584 1.33748075,17.4033437 3.30331588,17.4033437 L3.30331588,17.4033437 Z" id="Shape"></path>
                    <path d="M4.52301612,9.28218782 C2.55718099,9.28218782 2.55718099,12.3468731 4.52301612,12.3468731 C6.48885125,12.3465841 6.48885125,9.28218782 4.52301612,9.28218782 L4.52301612,9.28218782 Z" id="Shape"></path>
                    <path d="M15.0404784,33.1856347 C17.0063135,33.1856347 17.0063135,30.1209494 15.0404784,30.1209494 C13.074284,30.1212384 13.074284,33.1856347 15.0404784,33.1856347 L15.0404784,33.1856347 Z" id="Shape"></path>
                    <path d="M9.70550252,34.4116821 C11.6713376,34.4116821 11.6713376,31.3469969 9.70550252,31.3469969 C7.73937994,31.3470691 7.73937994,34.4116821 9.70550252,34.4116821 L9.70550252,34.4116821 Z" id="Shape"></path>
                    <path d="M6.80935222,31.040485 C8.77518735,31.040485 8.77518735,27.9757998 6.80935222,27.9757998 C4.84351709,27.9757998 4.84344523,31.040485 6.80935222,31.040485 L6.80935222,31.040485 Z" id="Shape"></path>
                    <path d="M3.30331588,28.1291641 C5.26915101,28.1291641 5.26915101,25.0644788 3.30331588,25.0644788 C1.33748075,25.0644788 1.33748075,28.1291641 3.30331588,28.1291641 L3.30331588,28.1291641 Z" id="Shape"></path>
                    <path d="M24.795637,13.8789267 C26.7614721,13.8789267 26.7614721,10.8142415 24.795637,10.8142415 C22.8298019,10.8142415 22.82973,13.8789267 24.795637,13.8789267 L24.795637,13.8789267 Z" id="Shape"></path>
                    <path d="M1.47437635,22.0000826 C3.44021148,22.0000826 3.44021148,18.9353973 1.47437635,18.9353973 C-0.491458782,18.9353973 -0.491458782,22.0000826 1.47437635,22.0000826 L1.47437635,22.0000826 Z" id="Shape"></path>
                    <path d="M23.5762242,6.83059856 C21.6103891,6.83059856 21.6103891,9.8952838 23.5762242,9.8952838 C25.5421312,9.8949226 25.5421312,6.83059856 23.5762242,6.83059856 L23.5762242,6.83059856 Z" id="Shape"></path>
                    <path d="M16.8694179,6.83059856 C18.8352531,6.83059856 18.8352531,3.76591331 16.8694179,3.76591331 C14.9035828,3.76591331 14.9035828,6.83059856 16.8694179,6.83059856 L16.8694179,6.83059856 Z" id="Shape"></path>
                    <path d="M28.9111282,8.20964912 C26.9452931,8.20964912 26.9452931,11.2743344 28.9111282,11.2743344 C30.8770352,11.2739732 30.8770352,8.20964912 28.9111282,8.20964912 L28.9111282,8.20964912 Z" id="Shape"></path>
                    <path d="M28.1488964,15.4111971 C30.1147315,15.4111971 30.1147315,12.3465119 28.1488964,12.3465119 C26.1830613,12.3465119 26.1829894,15.4111971 28.1488964,15.4111971 L28.1488964,15.4111971 Z" id="Shape"></path>
                    <path d="M30.2979327,14.594097 C32.2637678,14.594097 32.2637678,11.5294118 30.2979327,11.5294118 C28.3320976,11.5294118 28.3320257,14.594097 30.2979327,14.594097 L30.2979327,14.594097 Z" id="Shape"></path>
                    <path d="M36.9898368,20.1612281 C38.9556719,20.1612281 38.9556719,17.0965428 36.9898368,17.0965428 C35.0240016,17.0968318 35.0240016,20.1612281 36.9898368,20.1612281 L36.9898368,20.1612281 Z" id="Shape"></path>
                    <path d="M35.9229135,24.14516 C37.8887486,24.14516 37.8887486,21.0804747 35.9229135,21.0804747 C33.956719,21.0807637 33.956719,24.14516 35.9229135,24.14516 L35.9229135,24.14516 Z" id="Shape"></path>
                    <path d="M34.3985936,25.0647678 C32.4327584,25.0647678 32.4327584,28.129453 34.3985936,28.129453 C36.3644287,28.1291641 36.3644287,25.0647678 34.3985936,25.0647678 L34.3985936,25.0647678 Z" id="Shape"></path>
                    <path d="M39.1237553,25.0647678 C37.1579201,25.0647678 37.1579201,28.129453 39.1237553,28.129453 C41.0895185,28.1291641 41.0895185,25.0647678 39.1237553,25.0647678 L39.1237553,25.0647678 Z" id="Shape"></path>
                    <path d="M39.6836978,20.4677399 C37.7178626,20.4677399 37.7178626,23.5324252 39.6836978,23.5324252 C41.6495329,23.5324252 41.6495329,20.4677399 39.6836978,20.4677399 L39.6836978,20.4677399 Z" id="Shape"></path>
                    <path d="M36.7347295,32.5728277 C38.7005646,32.5728277 38.7005646,29.5081424 36.7347295,29.5081424 C34.7688944,29.5081424 34.7688944,32.5728277 36.7347295,32.5728277 L36.7347295,32.5728277 Z" id="Shape"></path>
                    <path d="M32.9240735,35.9437358 C34.8899086,35.9437358 34.8899086,32.8790506 32.9240735,32.8790506 C30.9582384,32.8794118 30.9582384,35.9437358 32.9240735,35.9437358 L32.9240735,35.9437358 Z" id="Shape"></path>
                    <path d="M37.2944564,15.2579773 C39.2602916,15.2579773 39.2602916,12.1932921 37.2944564,12.1932921 C35.3286213,12.1932921 35.3286213,15.2579773 37.2944564,15.2579773 L37.2944564,15.2579773 Z" id="Shape"></path>
                    <path d="M32.7218561,6.37072239 C30.7560209,6.37072239 30.7560209,9.43540764 32.7218561,9.43540764 C34.6876912,9.43540764 34.6876912,6.37072239 32.7218561,6.37072239 L32.7218561,6.37072239 Z" id="Shape"></path>
                    <path d="M27.8442768,3.61262126 C25.8784416,3.61262126 25.8784416,6.6773065 27.8442768,6.6773065 C29.8101119,6.6773065 29.8101119,3.61262126 27.8442768,3.61262126 L27.8442768,3.61262126 Z" id="Shape"></path>
                    <path d="M22.6617185,2.08027864 C20.6958834,2.08027864 20.6958834,5.14496388 22.6617185,5.14496388 C24.6275536,5.14496388 24.6276255,2.08027864 22.6617185,2.08027864 L22.6617185,2.08027864 Z" id="Shape"></path>
                    <path d="M11.3820244,2.69330237 C9.4161893,2.69330237 9.4161893,5.75798762 11.3820244,5.75798762 C13.3478596,5.75798762 13.3478596,2.69330237 11.3820244,2.69330237 L11.3820244,2.69330237 Z" id="Shape"></path>
                    <path d="M18.9299661,0.0651599587 C16.964131,0.0651599587 16.964131,3.1298452 18.9299661,3.1298452 C20.8958013,3.1298452 20.8958013,0.0651599587 18.9299661,0.0651599587 L18.9299661,0.0651599587 Z" id="Shape"></path>
                    <path d="M37.2944564,10.5079463 C39.2602916,10.5079463 39.2602916,7.44326109 37.2944564,7.44326109 C35.3286213,7.44333333 35.3286213,10.5079463 37.2944564,10.5079463 L37.2944564,10.5079463 Z" id="Shape"></path>
                </g>
            </g>
        </g>
    </g>
</svg>