
<svg width="72px" height="72px" viewBox="-1 -1 72 72" version="1.1" xmlns="http://www.w3.org/2000/svg" xmlns:xlink="http://www.w3.org/1999/xlink">
    <!-- Generator: Sketch 3.7.2 (28276) - http://www.bohemiancoding.com/sketch -->
    <desc>Created with Sketch.</desc>
    <defs></defs>
    <g id="Group" stroke="none" stroke-width="1" fill="none" fill-rule="evenodd">
        <circle id="Oval-1" stroke="#979797" fill="#4990E2" cx="35" cy="35" r="35"></circle>
        <g id="reverse" transform="translate(6.588235, 6.588235)">
            <ellipse id="Oval-1" stroke="#979797" fill="#FFFFFF" cx="28.8235294" cy="28.8235294" rx="28.8235294" ry="28.8235294"></ellipse>
            <g id="Group" transform="translate(8.235294, 8.235294)" fill="#4990E2">
                <path d="M37.6720901,3.31490973 L23.2165207,3.31490973 C22.8535544,3.31490973 22.5594493,3.65706174 22.5594493,4.0793244 C22.5594493,4.50158707 22.8535544,4.84373908 23.2165207,4.84373908 L37.6720901,4.84373908 C38.8797872,4.84373908 39.8623279,5.98679383 39.8623279,7.391788 L39.8623279,8.2895166 C39.2618523,7.72853815 38.5003504,7.391788 37.6720901,7.391788 L21.2453066,7.391788 L21.2453066,4.0793244 C21.2453066,1.83133372 19.6732416,0.00244612697 17.7409262,0.00244612697 L3.50438048,0.00244612697 C1.57206508,0.00244612697 0,1.83133372 0,4.0793244 L0,40.4095079 C0,40.8317705 0.294105131,41.1739225 0.657071339,41.1739225 L40.5193992,41.1739225 C40.8823655,41.1739225 41.1764706,40.8317705 41.1764706,40.4095079 L41.1764706,7.391788 C41.1764706,5.14389924 39.6044055,3.31490973 37.6720901,3.31490973 L37.6720901,3.31490973 Z M39.8623279,39.6451951 L1.31414268,39.6451951 L1.31414268,4.0793244 C1.31414268,2.67433023 2.29668335,1.53127548 3.50438048,1.53127548 L17.7409262,1.53127548 C18.9486233,1.53127548 19.931164,2.67433023 19.931164,4.0793244 L19.931164,8.15620268 C19.931164,8.57846535 20.2252691,8.92061736 20.5882353,8.92061736 L37.6720901,8.92061736 C38.8797872,8.92061736 39.8623279,10.0636721 39.8623279,11.4686663 L39.8623279,39.6451951 L39.8623279,39.6451951 Z" id="Shape"></path>
                <path d="M29.5435044,23.6320326 C31.35597,23.6320326 32.8305257,21.9165842 32.8305257,19.8080227 C32.8305257,17.6994613 31.35597,15.9841147 29.5435044,15.9841147 C27.7310388,15.9841147 26.2565707,17.6994613 26.2565707,19.8080227 C26.2565707,21.9165842 27.7310388,23.6320326 29.5435044,23.6320326 L29.5435044,23.6320326 Z M29.5435044,17.513046 C30.6313517,17.513046 31.516383,18.5426616 31.516383,19.8081246 C31.516383,21.0736896 30.6313517,22.1033052 29.5435044,22.1033052 C28.4557447,22.1033052 27.5707134,21.0736896 27.5707134,19.8081246 C27.5707134,18.5426616 28.4557447,17.513046 29.5435044,17.513046 L29.5435044,17.513046 Z" id="Shape"></path>
                <path d="M29.5435044,25.160862 C28.6515519,25.160862 27.7670463,25.4185207 26.9854819,25.9062172 C26.6657071,26.1056785 26.5454193,26.5690157 26.7169587,26.9410309 C26.8884105,27.3129441 27.2865081,27.4532906 27.6064581,27.2534217 C28.1977347,26.884668 28.867597,26.6896913 29.5435044,26.6896913 C31.5859449,26.6896913 33.2851314,28.4321491 33.6007009,30.7061299 L29.5435044,30.7061299 C29.1805382,30.7061299 28.886433,31.0482819 28.886433,31.4705446 C28.886433,31.8928072 29.1805382,32.2349592 29.5435044,32.2349592 L34.3101627,32.2349592 C34.6731289,32.2349592 34.967234,31.8928072 34.967234,31.4705446 C34.967234,27.9914386 32.5341427,25.160862 29.5435044,25.160862 L29.5435044,25.160862 Z" id="Shape"></path>
                <path d="M11.6913141,30.7061299 L7.57585732,30.7061299 C7.89142678,28.4320472 9.59061327,26.6896913 11.6330538,26.6896913 C12.3089612,26.6896913 12.9786483,26.8845661 13.5697497,27.2532178 C13.889612,27.4530868 14.2879725,27.3129441 14.4592491,26.940827 C14.6307885,26.5688119 14.5105006,26.1054747 14.1907259,25.9060134 C13.4093367,25.4185207 12.524831,25.160862 11.6330538,25.160862 C8.64232791,25.160862 6.20932416,27.9913366 6.20932416,31.4705446 C6.20932416,31.8928072 6.50342929,32.2349592 6.86639549,32.2349592 L11.6914018,32.2349592 C12.054368,32.2349592 12.3484731,31.8928072 12.3484731,31.4705446 C12.3484731,31.0482819 12.0542804,30.7061299 11.6913141,30.7061299 L11.6913141,30.7061299 Z" id="Shape"></path>
                <path d="M11.6329662,23.6320326 C13.4454318,23.6320326 14.9198999,21.9165842 14.9198999,19.8080227 C14.9198999,17.6994613 13.4454318,15.9841147 11.6329662,15.9841147 C9.82050063,15.9841147 8.34594493,17.6994613 8.34594493,19.8080227 C8.34594493,21.9165842 9.82058824,23.6320326 11.6329662,23.6320326 L11.6329662,23.6320326 Z M11.6329662,17.513046 C12.7207259,17.513046 13.6057572,18.5426616 13.6057572,19.8081246 C13.6057572,21.0736896 12.7207259,22.1033052 11.6329662,22.1033052 C10.5451189,22.1033052 9.66008761,21.0736896 9.66008761,19.8081246 C9.66017522,18.5426616 10.5451189,17.513046 11.6329662,17.513046 L11.6329662,17.513046 Z" id="Shape"></path>
                <path d="M20.5882353,23.908343 C22.9218023,23.908343 24.8203004,21.6996942 24.8203004,18.984901 C24.8203004,16.2701077 22.9218023,14.0614589 20.5882353,14.0614589 C18.2546683,14.0614589 16.3561702,16.2701077 16.3561702,18.984901 C16.3561702,21.6996942 18.2546683,23.908343 20.5882353,23.908343 L20.5882353,23.908343 Z M20.5882353,15.5903902 C22.197184,15.5903902 23.5061577,17.1131043 23.5061577,18.9850029 C23.5061577,20.8569016 22.1972716,22.3796156 20.5882353,22.3796156 C18.979199,22.3796156 17.6703129,20.8569016 17.6703129,18.9850029 C17.6703129,17.1131043 18.9792866,15.5903902 20.5882353,15.5903902 L20.5882353,15.5903902 Z" id="Shape"></path>
                <path d="M20.5882353,25.4371724 C16.6530788,25.4371724 13.4515645,29.1617065 13.4515645,33.7398369 C13.4515645,34.1620996 13.7456696,34.5042516 14.1086358,34.5042516 L27.0679224,34.5042516 C27.4308886,34.5042516 27.7249937,34.1620996 27.7249937,33.7398369 C27.7249937,29.1617065 24.5234793,25.4371724 20.5882353,25.4371724 L20.5882353,25.4371724 Z M14.8025907,32.9754222 C15.1298123,29.5986459 17.5996996,26.9660017 20.5882353,26.9660017 C23.576771,26.9660017 26.0467459,29.5986459 26.3739675,32.9754222 L14.8025907,32.9754222 L14.8025907,32.9754222 Z" id="Shape"></path>
            </g>
        </g>
    </g>
</svg>