
<svg width="72px" height="72px" viewBox="-1 -1 72 72" version="1.1" xmlns="http://www.w3.org/2000/svg" xmlns:xlink="http://www.w3.org/1999/xlink">
    <!-- Generator: Sketch 3.7.2 (28276) - http://www.bohemiancoding.com/sketch -->
    <desc>Created with Sketch.</desc>
    <defs></defs>
    <g id="Observe" stroke="none" stroke-width="1" fill="none" fill-rule="evenodd">
        <g id="Layer_1">
            <circle id="Oval-1" stroke="#979797" fill="#4990E2" cx="35" cy="35" r="35"></circle>
            <g id="reverse" transform="translate(6.588235, 6.588235)">
                <ellipse id="Oval-1" stroke="#979797" fill="#FFFFFF" cx="28.8235294" cy="28.8235294" rx="28.8235294" ry="28.8235294"></ellipse>
                <g id="Group" transform="translate(8.235294, 18.941176)" fill="#4990E2">
                    <path d="M7.34633484,10.2941176 C7.34633484,6.14183287 9.36190045,2.44098712 12.4874208,0.0737818733 C7.19692308,1.94651603 2.78090498,5.60053017 0,10.2941176 C2.78090498,14.9877051 7.19692308,18.6417193 12.4874208,20.5144534 C9.36190045,18.1472482 7.34633484,14.4464024 7.34633484,10.2941176 L7.34633484,10.2941176 Z" id="Shape"></path>
                    <path d="M20.5882353,0.0156399899 C14.7836199,0.0156399899 10.061267,4.62660944 10.061267,10.2941176 C10.061267,15.9616259 14.7836199,20.5725953 20.5882353,20.5725953 C26.3928507,20.5725953 31.1152036,15.9617142 31.1152036,10.2941176 C31.1152036,4.62652108 26.3928507,0.0156399899 20.5882353,0.0156399899 L20.5882353,0.0156399899 Z M20.5882353,13.386771 C18.838914,13.386771 17.4208145,12.0021459 17.4208145,10.2941176 C17.4208145,8.58608937 18.838914,7.20146428 20.5882353,7.20146428 C22.3375566,7.20146428 23.7556561,8.58608937 23.7556561,10.2941176 C23.7556561,12.0021459 22.3375566,13.386771 20.5882353,13.386771 L20.5882353,13.386771 Z" id="Shape"></path>
                    <path d="M28.6890498,0.0737818733 C31.8145701,2.44098712 33.8301357,6.14183287 33.8301357,10.2941176 C33.8301357,14.4464024 31.8145701,18.1472482 28.6890498,20.5144534 C33.9795475,18.6417193 38.3955656,14.9877051 41.1764706,10.2941176 C38.3955656,5.60053017 33.9795475,1.94651603 28.6890498,0.0737818733 L28.6890498,0.0737818733 Z" id="Shape"></path>
                </g>
            </g>
        </g>
    </g>
</svg>