
<svg width="72px" height="72px" viewBox="-1 -1 72 72" version="1.1" xmlns="http://www.w3.org/2000/svg" xmlns:xlink="http://www.w3.org/1999/xlink">
    <!-- Generator: Sketch 3.7.2 (28276) - http://www.bohemiancoding.com/sketch -->
    <desc>Created with Sketch.</desc>
    <defs></defs>
    <g id="Subscription" stroke="none" stroke-width="1" fill="none" fill-rule="evenodd">
        <g id="Capa_1">
            <circle id="Oval-1" stroke="#979797" fill="#4990E2" cx="35" cy="35" r="35"></circle>
            <g id="reverse" transform="translate(6.588235, 6.588235)">
                <ellipse id="Oval-1" stroke="#979797" fill="#FFFFFF" cx="28.8235294" cy="28.8235294" rx="28.8235294" ry="28.8235294"></ellipse>
                <g id="Group" transform="translate(9.882353, 8.235294)" stroke="#4990E2" stroke-width="2" fill="#4990E2">
                    <path d="M5.0678733,0 L5.0678733,1.26696833 C15.2036199,1.26696833 24.8154751,5.74253394 31.3397285,13.5476923 C36.4677828,19.6791855 39.3083258,27.4666063 39.3083258,35.4751131 L40.5752941,35.4751131 C40.5752941,27.1701357 37.6302262,19.0944796 32.3121267,12.7349321 C25.5458824,4.64153846 15.8371041,0 5.0678733,0 L5.0678733,0 Z" id="Shape"></path>
                    <path d="M32.1613575,35.4751131 L33.4283258,35.4751131 C33.4283258,19.8552941 20.9049774,7.14696833 5.0678733,7.14696833 L5.0678733,8.41393665 C20.2714932,8.41393665 32.1613575,20.5533937 32.1613575,35.4751131 L32.1613575,35.4751131 Z" id="Shape"></path>
                    <path d="M5.0678733,14.2939367 L5.0678733,15.560905 C15.8371041,15.560905 25.0137557,24.4942986 25.0137557,35.4751131 L26.280724,35.4751131 C26.280724,23.7955656 16.4705882,14.2939367 5.0678733,14.2939367 L5.0678733,14.2939367 Z" id="Shape"></path>
                    <path d="M19.1343891,35.4751131 C19.1343891,27.7364706 12.6696833,21.440905 5.0678733,21.440905 L5.0678733,22.7078733 C12.0361991,22.7078733 17.8674208,28.4352036 17.8674208,35.4751131 L19.1343891,35.4751131 L19.1343891,35.4751131 Z" id="Shape"></path>
                    <path d="M10.2009955,35.4751131 C10.2009955,32.6630769 7.91285068,30.3749321 5.100181,30.3749321 C2.28751131,30.3749321 0,32.6630769 0,35.4751131 C0,38.2871493 2.28751131,40.5752941 5.100181,40.5752941 C7.91285068,40.5752941 10.2009955,38.2871493 10.2009955,35.4751131 L10.2009955,35.4751131 Z M1.26696833,35.4751131 C1.26696833,33.36181 2.98687783,31.6419005 5.100181,31.6419005 C7.21411765,31.6419005 8.93402715,33.36181 8.93402715,35.4751131 C8.93402715,37.5884163 7.21411765,39.3083258 5.100181,39.3083258 C2.98687783,39.3083258 1.26696833,37.5884163 1.26696833,35.4751131 L1.26696833,35.4751131 Z" id="Shape"></path>
                </g>
            </g>
        </g>
    </g>
</svg>