
<svg width="72px" height="72px" viewBox="-1 -1 72 72" version="1.1" xmlns="http://www.w3.org/2000/svg" xmlns:xlink="http://www.w3.org/1999/xlink">
    <!-- Generator: Sketch 3.7.2 (28276) - http://www.bohemiancoding.com/sketch -->
    <desc>Created with Sketch.</desc>
    <defs></defs>
    <g id="Capa_1" stroke="none" stroke-width="1" fill="none" fill-rule="evenodd">
        <circle id="Oval-1" stroke="#979797" fill="#4990E2" cx="35" cy="35" r="35"></circle>
        <g id="reverse" transform="translate(6.588235, 6.588235)">
            <ellipse id="Oval-1" stroke="#979797" fill="#FFFFFF" cx="28.8235294" cy="28.8235294" rx="28.8235294" ry="28.8235294"></ellipse>
            <g id="Group" transform="translate(8.235294, 14.823529)" fill="#4990E2">
                <polygon id="Shape" points="0 1.39170255 1.83118757 0 41.1081021 29.850455 39.2769145 31.2421576"></polygon>
                <path d="M30.5958441,15.6210788 C30.5958441,11.4130369 26.0912073,7.98957849 20.5543963,7.98957849 C19.2100752,7.98957849 17.9269577,8.19190776 16.7540757,8.55772746 L29.8482797,18.5093225 C30.3296214,17.6179322 30.5958441,16.6427629 30.5958441,15.6210788 L30.5958441,15.6210788 Z" id="Shape"></path>
                <path d="M33.1855593,15.6210788 C33.1855593,17.1941823 32.6850536,18.6800952 31.7987668,19.9916927 L33.3973116,21.2065868 C36.1719324,19.7543298 38.500259,17.8449949 40.1930694,15.6210788 C37.5404242,12.1362131 33.3280799,9.42320335 28.2815884,8.03274732 C31.2628684,9.79033518 33.1855593,12.5381162 33.1855593,15.6210788 L33.1855593,15.6210788 Z" id="Shape"></path>
                <path d="M10.5128623,15.6210788 C10.5128623,19.8291207 15.0174991,23.2525791 20.55431,23.2525791 C21.8986312,23.2525791 23.1817487,23.0502498 24.3546307,22.6844301 L11.2604267,12.7329007 C10.779085,13.624291 10.5128623,14.5994604 10.5128623,15.6210788 L10.5128623,15.6210788 Z" id="Shape"></path>
                <path d="M7.92314712,15.6210788 C7.92314712,14.0479753 8.42365273,12.5620624 9.30993957,11.2504649 L7.71139475,10.0355708 C4.93677395,11.4878278 2.6084474,13.3971627 0.915636947,15.6210788 C3.56828216,19.1059445 7.78062646,21.8189542 12.827118,23.2094103 C9.84575163,21.4518224 7.92314712,18.704107 7.92314712,15.6210788 L7.92314712,15.6210788 Z" id="Shape"></path>
            </g>
        </g>
    </g>
</svg>